<svg width="165" height="91" viewBox="0 0 165 91" fill="none" xmlns="http://www.w3.org/2000/svg"><path d="M99.237 59.21c-3.014-1.365-14.027-3.982-16.925-29.696 5.796 7.85 19.94 9.216 30.026 16.157-9.043-16.043 1.739-27.194-3.362-45.171 5.333 7.51 23.998 18.205 17.737 28.559-.695-5.917-6.144-14.678-12.984-18.319 2.319 6.144-2.898 21.39 0 30.835 1.507 6.826 5.681 8.192 8.115 12.174 6.029-22.3 33.852-19.456 42.199-30.834-.463 2.048.232 18.546-15.882 29.127 2.666-3.868 9.158-12.174 9.854-21.049-7.304 6.6-11.709 6.485-20.404 10.695-9.507 4.324-13.1 8.875-15.651 12.175 1.159 2.048 3.478 7.965 4.29 12.288-2.319-5.575-8.116-13.881-18.781-17.75-8.116-2.844-15.651-6.144-19.13-10.354 1.74 9.786 7.768 17.067 10.898 21.164z" fill="#4EAE3C"/><path d="M94.832 46.467c5.912 3.869 13.68.342 15.883 11.264-7.42-4.665-15.651-3.072-15.883-11.264zm57.154-7.737c-4.753 4.096-16.462 3.186-15.883 11.378 6.493-3.755 13.449-.455 15.883-11.378zm-34.547-19.456c1.043 8.647-4.753 15.588 3.014 19.001-.811-7.282 5.681-12.06-3.014-19.001z" fill="#A8C825"/><path d="M0 78.667v-1.934h2.319V59.552H0v-1.934h14.492v4.323h-1.855l-.116-2.39h-8v7.169h7.188v1.934H4.521v8.079h8.463l.232-2.845 1.855.114-.116 4.665H0zm24.462-1.593c2.318 0 3.594-.569 4.637-1.138l.696 1.707c-1.16.796-3.13 1.365-5.333 1.365-4.521 0-6.84-1.593-6.84-7.623 0-5.803 2.087-7.965 7.072-7.965 2.782 0 4.29.683 4.753 2.39.232.796.232 1.479.232 2.162h-2.087c0-.57 0-1.252-.348-1.707-.232-.57-.927-1.024-2.782-1.024-4.174 0-4.753 2.39-4.753 6.03 0 2.959.463 5.803 4.753 5.803zm14.143 1.934c-4.521 0-6.724-1.479-6.724-7.85 0-6.486 3.014-7.738 6.956-7.738 4.29 0 6.724 1.138 6.724 7.624 0 6.371-2.319 7.964-6.956 7.964zm.116-13.767c-3.13 0-4.753 1.138-4.753 5.803 0 5.006 1.391 6.03 4.637 6.03 3.246 0 4.638-.91 4.638-5.917.115-4.665-1.276-5.916-4.522-5.916z" fill="#4EAE3C"/><path d="M52.98 78.667v-1.934h2.435V59.552h-5.217l-.116 2.503h-1.855v-4.437h16.578v4.437H62.95l-.116-2.503h-5.216v17.18h2.318v1.935H52.98zm12.753 0v-1.82h2.087V66.833c0-.683-.116-1.252-1.044-1.252-.232 0-.695 0-1.043.114l-.116-1.82c.464-.114 1.623-.114 1.97-.114 1.856 0 2.203.796 2.203 2.275.348-1.82 2.203-2.503 4.058-2.503.927 0 1.507.228 1.855.342l-.464 2.161c-.58-.227-1.275-.341-2.087-.341-1.275 0-2.202.455-2.666.91-.232.114-.348.455-.464.797-.116.227-.116.682-.116 1.137v8.534h2.783v1.82h-6.956v-.227zm16.231.341c-4.29 0-5.217-2.275-5.217-4.437 0-1.707.58-2.845 1.855-3.414.927-.569 2.782-.796 4.753-.796 1.043 0 2.435 0 3.362.114v-1.707c0-.796-.116-1.82-.348-2.276-.347-.682-1.043-1.251-3.246-1.251-2.318 0-3.13.569-3.362 1.82-.116.342-.116.57-.116.797h-2.087v-.455c0-3.072 2.435-3.983 5.565-3.983 2.55 0 3.942.342 4.753 1.138.812.797.928 1.82.928 3.641v7.055c0 1.023.232 1.592 1.16 1.592.347 0 .695 0 1.159-.113l.231 1.82a8.026 8.026 0 01-1.739.228c-2.086 0-2.55-.91-2.55-2.162-.927 1.82-3.014 2.39-5.101 2.39zm1.507-7.054c-1.855 0-3.246.227-3.942.683-.463.34-.695.91-.695 1.82 0 1.48.811 2.73 3.594 2.73 2.086 0 3.478-.682 3.941-1.592.232-.455.348-1.024.348-1.707v-1.82c-.811-.114-2.319-.114-3.246-.114zm10.433 6.713v-1.82h1.971v-9.9c0-.796-.116-1.365-.927-1.365-.348 0-.812 0-1.16.114l-.115-1.82c.58-.114 1.39-.114 1.855-.114 1.97 0 2.318.796 2.318 2.275.58-1.82 3.362-2.39 5.449-2.39 2.782 0 3.71.797 4.058 1.935.231.797.231 1.82.231 2.959v7.395c0 .797.232 1.138.928 1.138.464 0 1.043-.114 1.275-.114l.116 1.82c-.348.114-1.275.228-1.855.228-1.043 0-1.739-.227-2.203-.682-.347-.456-.463-1.138-.463-2.048v-7.624c0-.796-.116-1.706-.232-2.048-.348-.796-1.16-1.024-2.783-1.024-1.97 0-3.362.683-3.825 1.024-.232.228-.464.455-.58.797-.116.227-.116.455-.116 1.024v8.533h2.087v1.82h-6.029v-.113zm22.259-6.827c-2.203-.341-3.362-1.593-3.362-3.982 0-3.072 1.971-4.438 5.913-4.438 2.318 0 4.173.456 4.869 2.048.348.57.348 1.48.348 2.276l-2.087.114c0-.455-.116-1.024-.348-1.48-.232-.682-1.043-1.137-3.014-1.137-3.13 0-3.71.91-3.71 2.503 0 1.48.58 1.934 2.782 2.39l2.899.454c2.666.456 3.709 1.48 3.709 3.983 0 2.844-1.623 4.437-6.144 4.437-3.13 0-4.985-.682-5.681-2.617-.232-.569-.232-1.251-.347-1.82l2.086-.114c0 .455.116 1.024.348 1.48.348.796 1.391 1.25 3.71 1.25 3.13 0 3.826-1.137 3.826-2.502 0-1.025-.232-1.707-2.667-2.162l-3.13-.683zm11.13 6.827v-1.934h2.202V59.552h-2.202v-1.934h6.724v1.934h-2.203v17.18h2.203v1.935h-6.724zm14.144 0v-1.934h2.435V59.552h-5.217l-.116 2.503h-1.855v-4.437h16.578v4.437h-1.855l-.116-2.503h-5.217v17.18h2.319v1.935h-6.956z" fill="#F18827"/><path d="M122.076 90.272l-2.087-7.964h-.811v-.797h2.782v.797h-1.043c1.159 4.437 1.391 5.575 1.623 6.485.231-1.024.579-1.934 2.202-7.054h.812c1.623 5.006 1.971 6.03 2.202 7.054.232-.91.464-2.048 1.624-6.485h-1.044v-.797h2.783v.797h-.696l-2.087 7.964h-.927c-1.391-4.665-1.855-5.802-2.203-7.054-.348 1.252-.696 2.39-2.319 7.054h-.811zm12.289.114c-1.855 0-2.783-.569-2.783-3.186 0-2.73 1.276-3.186 2.899-3.186 1.739 0 2.782.456 2.782 3.186-.116 2.504-1.043 3.186-2.898 3.186zm0-5.689c-1.275 0-1.971.455-1.971 2.39 0 2.048.58 2.503 1.971 2.503 1.275 0 1.971-.342 1.971-2.39s-.58-2.503-1.971-2.503zm4.174 5.462v-.797h.811v-4.096c0-.341 0-.569-.463-.569h-.464v-.796c.232 0 .695-.114.811-.114.812 0 .928.341.928.91.116-.682.927-1.024 1.739-1.024.348 0 .695.114.811.114l-.232.91c-.231-.114-.579-.114-.811-.114-.58 0-.928.228-1.043.342-.116.114-.116.227-.232.341 0 .114-.116.341-.116.455v3.527h1.159v.797h-2.898v.114zm4.637 0v-.683h.811v-7.737h-.811v-.797h1.739v8.534h.811v.683h-2.55zm6.376.227c-1.739 0-2.666-.796-2.666-3.072 0-2.617.927-3.3 2.898-3.3.811 0 1.391.228 1.623.683v-2.844h-.812v-.797h1.739v7.851c0 .455.116.683.464.683h.464l.116.796c-.232 0-.464.114-.696.114-.811 0-1.043-.341-1.043-.796-.464.34-1.275.682-2.087.682zm1.855-4.323v-.57c-.116-.568-.58-.796-1.507-.796-1.623 0-2.087.683-2.087 2.503 0 1.707.58 2.39 1.855 2.39 1.159 0 1.507-.455 1.739-.91v-2.617z" fill="#4EAE3C"/></svg>